<?xml version="1.0" encoding="utf-8"?>
<!-- Generator: Adobe Illustrator 19.0.1, SVG Export Plug-In . SVG Version: 6.00 Build 0)  -->
<svg version="1.1" id="Capa_1" xmlns="http://www.w3.org/2000/svg" xmlns:xlink="http://www.w3.org/1999/xlink" x="0px" y="0px"
	 viewBox="0 0 1081 438.7" style="enable-background:new 0 0 1081 438.7;" xml:space="preserve">
<style type="text/css">
	.st0{clip-path:url(#SVGID_2_);fill:#FFFFFF;}
	.st1{fill:#FFFFFF;}
	.st2{font-family:'Lato', sans-serif;font-weight: 100;}
	.st3{font-size:227px;}
	.st4{letter-spacing:-2.2;}
	.st5{font-family:'Lato', sans-serif;font-weight: 400;}
</style>
<g>
	<defs>
		<path id="SVGID_1_" d="M613.2,438.7l-41.5-21.8c-6.3-3.3-13.9-2.9-20,0c0,0-42,21.8-42,21.8V388h103.5V438.7z"/>
	</defs>
	<clipPath id="SVGID_2_">
		<use xlink:href="#SVGID_1_"  style="overflow:visible;"/>
	</clipPath>
	<path class="st0" d="M470.4,386.6v80.8c0,6.1,3.8,11.8,10,14.8c3,1.4,6.3,2.2,9.6,2.2c3.5,0,7.1-0.8,10.2-2.5l61.1-32.1l61.2,32.1
		c3.1,1.6,6.7,2.5,10.2,2.5c3.3,0,6.6-0.7,9.6-2.2c6.2-3,10-8.6,10-14.8v-80.8H470.4z"/>
</g>
<g>
	<path class="st1" d="M275,101H61.1c-21.9,0-39.8-17.8-39.8-39.8c0-21.9,17.8-39.8,39.8-39.8h236.6c5.9,0,10.6-4.8,10.6-10.6
		c0-5.9-4.8-10.6-10.6-10.6H61.1C27.4,0,0,27.4,0,61.1v266.2c0,33.7,27.4,61.1,61.1,61.1h1004.6c5.9,0,14.4-7.4,14.4-13.3l0.9-263.8
		c-0.1-5.8-10.4-11.2-16.3-11.2L275,101z M1065.7,367.1H59.3c-20.9,0-38-17.8-38-39.8V107.5c10.2,9.2,23.5,14.8,38,14.8l1006.4,0.8
		V367.1z M287,367.1"/>
	<path class="st1" d="M64.5,51.4c-5.9,0-10.6,4.8-10.6,10.6c0,5.8,4.8,10.6,10.6,10.6h199.8c5.9,0,10.6-4.8,10.6-10.6
		c0-5.8-4.8-10.6-10.6-10.6H64.5z M64.5,51.4"/>
</g>
<text transform="matrix(0.9009 0 0 1 21.281 322.8407)"><tspan x="0" y="0" class="st1 st2 st3 st4">Biblio</tspan><tspan x="523.3" y="0" class="st1 st5 st3 st4">Activo</tspan></text>
</svg>
